<svg enable-background="new 0 0 530.974 184.956" height="184.956" viewBox="0 0 530.974 184.956" width="530.974" xmlns="http://www.w3.org/2000/svg"><path d="m178.972 93.252c0 48.27-39.26 87.536-87.513 87.536-48.257 0-87.515-39.267-87.515-87.536 0-48.246 39.258-87.503 87.515-87.503 48.253 0 87.513 39.257 87.513 87.503" fill="#e4002b"/><path d="m62.169 134.099c-8.45 0-15.324-6.874-15.324-15.323v-39.669c0-1.737.758-3.378 2.081-4.502l38.704-32.918c1.068-.908 2.427-1.408 3.829-1.408s2.761.5 3.829 1.408l38.703 32.918c1.323 1.124 2.082 2.765 2.082 4.502v39.668c0 8.449-6.875 15.323-15.325 15.323h-58.579zm-3.505-52.26v36.937c0 1.933 1.573 3.506 3.505 3.506h58.577c1.933 0 3.505-1.573 3.505-3.506v-36.937l-32.793-27.891z" fill="#fff"/><g fill="#333f48"><path d="m254.188 124.404c-2.558.667-7.561 1.445-14.342 1.445-14.454 0-25.35-8.894-25.35-27.017v-10.34c0-18.123 10.896-27.017 25.35-27.017 6.782 0 11.785.778 14.342 1.445 1.89.444 2.334 1.111 2.334 2.891v7.227c0 1.112-.889 1.667-2.001 1.667-.111 0-.222 0-.333 0-4.447-.556-7.116-.778-14.342-.778-5.226 0-10.673 3.002-10.673 14.565v10.34c0 11.563 5.447 14.564 10.673 14.564 7.227 0 9.895-.223 14.342-.777h.333c1.112 0 2.001.555 2.001 1.667v7.227c.001 1.78-.444 2.447-2.334 2.891z"/><path d="m310.665 124.961h-9.45c-1.224 0-2.224-1.001-2.224-2.224v-1.779c-5.114 3.113-10.34 4.892-15.677 4.892-9.228 0-19.234-3.558-19.234-18.567v-.444c0-12.674 7.783-19.234 27.128-19.234h7.005v-4.892c0-7.227-3.225-9.006-9.784-9.006-7.115 0-14.453.445-18.122.889-.223 0-.445 0-.556 0-1.112 0-2.002-.333-2.002-1.89v-7.116c0-1.224.667-2.001 2.112-2.335 4.447-.889 10.896-1.778 18.567-1.778 15.788 0 24.46 7.004 24.46 21.235v40.025c.001 1.223-1 2.224-2.223 2.224zm-12.452-27.573h-7.005c-10.117 0-12.341 3.225-12.341 9.45v.444c0 5.448 2.446 6.894 8.005 6.894 4.003 0 8.116-1.334 11.341-3.113z"/><path d="m345.351 125.85c-4.336 0-13.675-.556-19.901-2.224-1.334-.333-2.112-1.223-2.112-2.557v-6.671c0-.89.778-1.778 1.89-1.778h.445c5.337.667 15.343 1.222 18.678 1.222 6.895 0 7.895-2.334 7.895-5.336 0-2.112-1.335-3.446-4.892-5.67l-15.232-9.339c-5.448-3.336-9.339-8.895-9.339-15.343 0-11.118 7.004-16.677 21.124-16.677 9.006 0 14.12 1 19.79 2.223 1.334.333 2.002 1.223 2.002 2.558v6.448c0 1.334-.668 2.113-1.78 2.113-.222 0-.333 0-.443 0-3.113-.445-12.008-1.334-18.346-1.334-5.336 0-7.671 1.223-7.671 4.669 0 1.779 1.668 2.891 4.447 4.559l14.564 8.894c9.34 5.67 10.674 11.23 10.674 16.9-.001 9.672-7.228 17.343-21.793 17.343z"/><path d="m421.285 124.961h-9.449c-1.224 0-2.225-1.001-2.225-2.224v-1.779c-5.114 3.113-10.339 4.892-15.677 4.892-9.229 0-19.234-3.558-19.234-18.567v-.444c0-12.674 7.783-19.234 27.129-19.234h7.004v-4.892c0-7.227-3.225-9.006-9.783-9.006-7.115 0-14.455.445-18.123.889-.222 0-.445 0-.557 0-1.11 0-2.001-.333-2.001-1.89v-7.116c0-1.224.667-2.001 2.112-2.335 4.448-.889 10.896-1.778 18.568-1.778 15.788 0 24.46 7.004 24.46 21.235v40.025c.001 1.223-1 2.224-2.224 2.224zm-12.452-27.573h-7.004c-10.118 0-12.341 3.225-12.341 9.45v.444c0 5.448 2.446 6.894 8.004 6.894 4.003 0 8.116-1.334 11.341-3.113z"/><path d="m447.744 124.961h-9.895c-1.224 0-2.225-1.001-2.225-2.224v-12.564c0-1.222 1.001-2.112 2.225-2.112h9.895c1.222 0 2.223.891 2.223 2.112v12.564c0 1.223-1.001 2.224-2.223 2.224z"/><path d="m475.203 53.916h-10.784c-1.223 0-2.335-1-2.335-2.223v-9.784c0-1.223 1.112-2.224 2.335-2.224h10.784c1.224 0 2.225 1.001 2.225 2.224v9.784c0 1.223-1.001 2.223-2.225 2.223zm-.333 71.045h-10.229c-1.224 0-2.225-1.112-2.225-2.335v-58.148c0-1.223 1.001-2.224 2.225-2.224h10.229c1.223 0 2.224 1 2.224 2.224v58.148c0 1.223-1.001 2.335-2.224 2.335z"/><path d="m522.453 125.071c-2.668.445-5.113.778-7.56.778-12.563 0-17.679-2.779-17.679-17.678v-34.91l-10.45-1.557c-1.224-.222-2.223-1-2.223-2.224v-5.003c0-1.223.999-2.224 2.223-2.224h10.45v-9.117c0-1.223 1.001-2.001 2.225-2.224l10.339-1.779h.446c.999 0 1.778.556 1.778 1.668v11.452h10.006c1.224 0 2.224 1 2.224 2.224v6.56c0 1.223-1 2.224-2.224 2.224h-10.006v34.911c0 5.56.333 6.227 4.336 6.227h5.893c1.445 0 2.335.556 2.335 1.668v7.004c0 1.112-.668 1.779-2.113 2z"/></g></svg>