<?xml version="1.0" encoding="utf-8"?>
<!-- Generator: Adobe Illustrator 15.1.0, SVG Export Plug-In . SVG Version: 6.00 Build 0)  -->
<!DOCTYPE svg PUBLIC "-//W3C//DTD SVG 1.1//EN" "http://www.w3.org/Graphics/SVG/1.1/DTD/svg11.dtd">
<svg version="1.1" id="Livello_1" xmlns="http://www.w3.org/2000/svg" xmlns:xlink="http://www.w3.org/1999/xlink" x="0px" y="0px"
	 width="32px" height="32px" viewBox="0 0 32 32" enable-background="new 0 0 32 32" xml:space="preserve">
<g display="none">
	<path display="inline" fill="#697684" d="M26.848,27.005H5.124c-1.745,0-3.164-1.419-3.164-3.164V9.358
		c0-1.745,1.419-3.164,3.164-3.164h4.224c0.293,0,0.886-0.594,1.279-0.987c0.701-0.702,1.426-1.427,2.341-1.427h6.037
		c0.913,0,1.638,0.725,2.339,1.426c0.393,0.394,0.987,0.988,1.28,0.988h4.224c1.745,0,3.164,1.419,3.164,3.164v14.483
		C30.012,25.586,28.593,27.005,26.848,27.005z M5.124,7.694c-0.917,0-1.664,0.746-1.664,1.664v14.483
		c0,0.918,0.747,1.664,1.664,1.664h21.724c0.918,0,1.664-0.746,1.664-1.664V9.358c0-0.917-0.746-1.664-1.664-1.664h-4.224
		c-0.914,0-1.64-0.726-2.342-1.427c-0.394-0.393-0.985-0.986-1.277-0.986h-6.037c-0.293,0-0.863,0.571-1.28,0.987
		c-0.701,0.701-1.426,1.426-2.34,1.426H5.124z M15.986,22.178c-3.741,0-6.785-3.044-6.785-6.786c0-3.741,3.043-6.784,6.785-6.784
		c3.741,0,6.784,3.043,6.784,6.784C22.77,19.134,19.727,22.178,15.986,22.178z M15.986,10.108c-2.914,0-5.285,2.371-5.285,5.284
		c0,2.915,2.371,5.286,5.285,5.286c2.915,0,5.284-2.371,5.284-5.286C21.27,12.479,18.898,10.108,15.986,10.108z M15.986,19.762
		c-2.41,0-4.37-1.96-4.37-4.37c0-2.41,1.96-4.37,4.37-4.37c2.411,0,4.37,1.96,4.37,4.37C20.355,17.802,18.396,19.762,15.986,19.762z
		 M15.986,12.522c-1.583,0-2.87,1.288-2.87,2.87c0,1.583,1.288,2.87,2.87,2.87c1.583,0,2.87-1.287,2.87-2.87
		C18.855,13.809,17.568,12.522,15.986,12.522z"/>
</g>
<g display="none">
	<path display="inline" fill="none" stroke="#697684" stroke-width="1.5" stroke-miterlimit="10" d="M15.958,2.693
		c-1.262,0-2.298,0.97-2.398,2.203c-5.68,1.099-6.395,6.179-6.927,9.957c-0.36,2.559-0.734,5.176-2.313,6.833
		c-0.668,0.699-0.853,1.797-0.473,2.685c0.38,0.888,1.249,1.479,2.215,1.479h4.615h10.558h4.701c0.967,0,1.84-0.596,2.219-1.484
		c0.381-0.891,0.188-1.87-0.481-2.564c-1.593-1.654-1.969-4.332-2.333-6.891c-0.531-3.777-1.254-8.894-6.979-9.984
		C18.256,3.683,17.218,2.693,15.958,2.693"/>
</g>
<g display="none">
	<path display="inline" fill="none" stroke="#697684" stroke-width="1.5" stroke-miterlimit="10" d="M19.582,25.631
		c0,2.026-1.646,3.676-3.673,3.676c-2.027,0-3.675-1.646-3.675-3.676"/>
</g>
<path display="none" fill="none" stroke="#697684" stroke-width="1.5" stroke-miterlimit="10" d="M28.04,6.378H3.676
	c-0.673,0-1.218,0.546-1.218,1.218v17.056c0,0.673,0.545,1.219,1.218,1.219H28.04c0.674,0,1.219-0.546,1.219-1.219V7.597
	C29.259,6.924,28.715,6.378,28.04,6.378 M2.831,6.722L2.831,6.722l10.125,11.62 M2.859,25.552l9.038-8.387l2.253,2.503
	c0.939,0.938,2.459,0.938,3.397,0l2.253-2.503l9.063,8.378 M19.425,17.588l9.261-11.021"/>
<g id="Livello_2" display="none">
	<g display="inline" enable-background="new    ">
		<g>
			<path fill="#697684" d="M3.172,6.36h2.184l3.399,8.015c0.336,0.82,0.734,1.994,0.734,1.994H9.53c0,0,0.399-1.174,0.734-1.994
				l3.4-8.015h2.182l1.196,14.814h-2.057l-0.735-9.338c-0.062-0.902-0.021-2.183-0.021-2.183h-0.042c0,0-0.44,1.363-0.797,2.183
				l-2.958,6.672H8.585l-2.937-6.672C5.312,11.04,4.851,9.611,4.851,9.611H4.808c0,0,0.021,1.322-0.042,2.225l-0.714,9.338H1.976
				L3.172,6.36z"/>
			<path fill="#697684" d="M17.182,21.303H14.87l-0.009-0.117l-0.735-9.336c-0.032-0.475-0.037-1.057-0.034-1.502
				c-0.161,0.466-0.386,1.089-0.583,1.543l-2.992,6.75H8.502l-2.97-6.75c-0.193-0.457-0.428-1.124-0.594-1.61
				c-0.001,0.461-0.011,1.078-0.045,1.568L4.17,21.303H1.837l0.011-0.138L3.054,6.233h2.385l0.034,0.078l3.399,8.015
				c0.232,0.568,0.497,1.312,0.637,1.714c0.141-0.402,0.405-1.145,0.638-1.712l3.434-8.094h2.384L17.182,21.303z M15.104,21.048h1.8
				L15.73,6.488h-1.981l-3.367,7.937c-0.33,0.805-0.728,1.973-0.731,1.984l-0.029,0.087H9.397l-0.029-0.087
				c-0.004-0.012-0.401-1.179-0.731-1.986L5.271,6.488H3.29l-1.176,14.56h1.82l0.705-9.221c0.062-0.887,0.042-2.2,0.042-2.213
				l-0.003-0.13h0.265l0.029,0.088c0.004,0.014,0.464,1.432,0.793,2.215l2.903,6.595h1.681l2.925-6.597
				c0.35-0.804,0.789-2.157,0.793-2.17l0.029-0.088h0.266l-0.004,0.131c0,0.013-0.04,1.285,0.021,2.171L15.104,21.048z"/>
		</g>
		<g>
			<path fill="#697684" d="M24.303,10.305c2.456,0,3.357,1.785,3.357,1.785h0.041c0,0-0.021-0.316-0.021-0.736v-0.797h1.93v14.815
				h-2.032v-4.849c0-0.545,0.043-0.922,0.043-0.922h-0.043c0,0-0.884,1.821-3.399,1.821c-2.873,0-4.68-2.266-4.68-5.561
				C19.496,12.486,21.49,10.305,24.303,10.305z M24.575,19.662c1.573,0,3.063-1.111,3.063-3.818c0-1.889-0.986-3.777-3-3.777
				c-1.682,0-3.062,1.385-3.062,3.798C21.574,18.175,22.812,19.662,24.575,19.662z"/>
			<path fill="#697684" d="M29.738,25.499h-2.291v-4.976c0-0.195,0.006-0.367,0.013-0.514c-0.414,0.553-1.418,1.541-3.284,1.541
				c-2.875,0-4.807-2.283-4.807-5.688c0-3.404,1.982-5.688,4.934-5.688c1.846,0,2.852,0.996,3.256,1.528
				c-0.002-0.104-0.004-0.223-0.004-0.352v-0.924h2.184V25.499L29.738,25.499z M27.703,25.244h1.779v-14.56h-1.674v0.669
				c0,0.411,0.021,0.725,0.021,0.728l0.009,0.136h-0.256l-0.036-0.07c-0.034-0.07-0.899-1.715-3.243-1.715
				c-2.799,0-4.679,2.183-4.679,5.433c0,3.3,1.786,5.434,4.552,5.434c2.404,0,3.25-1.682,3.285-1.753l0.034-0.071h0.267
				l-0.018,0.144c0,0.004-0.041,0.379-0.041,0.905V25.244z M24.575,19.79c-0.912,0-1.693-0.374-2.261-1.081
				c-0.567-0.708-0.867-1.691-0.866-2.845c0-2.312,1.312-3.925,3.19-3.925c2.146,0,3.127,2.024,3.127,3.905
				C27.768,18.753,26.118,19.79,24.575,19.79z M24.641,12.194c-1.757,0-2.938,1.475-2.938,3.67
				c-0.001,1.095,0.279,2.021,0.811,2.686c0.52,0.646,1.229,0.985,2.062,0.985c1.42,0,2.938-0.971,2.938-3.691
				C27.512,14.086,26.611,12.194,24.641,12.194z"/>
		</g>
	</g>
</g>
<g id="Livello_3" display="none">
	<g display="inline">
		<path fill="#697684" d="M23.302,29.753c-3.399,0-7.588-2.604-13.178-8.198C4.13,14.911,1.758,10.771,2.136,7.648
			c0.275-2.265,1.956-3.599,3.509-4.671c0.981-0.716,1.95-0.98,2.808-0.819c1.382,0.249,2.594,1.421,4.464,4.325
			c1.997,3.091,2.029,4.67,0.125,6.259c-0.12,0.102-0.22,0.188-0.321,0.277l-0.106,0.087c-0.052,0.039-0.1,0.081-0.139,0.121
			c0.734,0.752,1.989,2.103,2.956,3.149l0.103,0.109c0.451,0.431,2.334,2.229,3.189,3.035c0.094-0.045,0.273-0.166,0.404-0.301
			l0.332-0.304c0.54-0.493,1.291-1.179,2.488-1.179c0.963,0,2.021,0.438,3.662,1.521c1.658,1.091,3.699,2.813,4.005,4.828
			c0.146,0.935-0.103,1.812-0.71,2.534c-1.604,2.016-3.28,3.012-5.268,3.119C23.543,29.749,23.422,29.753,23.302,29.753z
			 M7.942,3.609c-0.422,0-0.876,0.188-1.428,0.591C5.098,5.177,3.825,6.181,3.625,7.829c-0.312,2.577,2.088,6.599,7.554,12.66
			c5.295,5.299,9.146,7.765,12.122,7.765c0.081,0,0.163-0.002,0.243-0.009c1.563-0.084,2.854-0.877,4.203-2.572
			c0.34-0.403,0.466-0.854,0.388-1.358c-0.173-1.146-1.359-2.494-3.346-3.801c-2.577-1.697-3.229-1.479-4.271-0.527l-0.3,0.269
			c-0.137,0.146-0.78,0.767-1.52,0.79c0,0-0.001,0-0.003,0c-0.375,0-0.682-0.125-0.939-0.369c-0.82-0.771-2.795-2.656-3.288-3.13
			L14.333,17.4c-1.485-1.608-2.586-2.778-3.106-3.3c-0.273-0.271-0.403-0.607-0.359-0.94c0.053-0.627,0.708-1.149,0.838-1.247
			c0.127-0.11,0.236-0.204,0.371-0.317c0.922-0.771,1.53-1.278-0.421-4.297C10.105,4.888,9.065,3.792,8.18,3.633
			C8.1,3.618,8.021,3.609,7.942,3.609z"/>
	</g>
</g>
<g display="none">
	<path display="inline" fill="#697684" d="M23.576,29.021c-0.381,0-0.752-0.109-1.072-0.317l-6.503-4.196l-6.504,4.197
		c-0.672,0.436-1.583,0.409-2.231-0.059c-0.667-0.485-0.961-1.312-0.751-2.106L8.5,19.059l-6.003-4.887
		c-0.628-0.51-0.883-1.372-0.634-2.144c0.253-0.771,0.964-1.318,1.771-1.365l7.732-0.423l2.792-7.22
		c0.298-0.768,1.022-1.264,1.843-1.264c0.813,0,1.556,0.51,1.845,1.269l2.789,7.216l7.729,0.423c0.81,0.044,1.521,0.591,1.773,1.362
		c0.254,0.786,0.004,1.628-0.636,2.147L23.5,19.057l1.99,7.482c0.208,0.801-0.088,1.627-0.752,2.105
		C24.395,28.893,23.992,29.021,23.576,29.021z M16.001,22.723l7.317,4.723c0.168,0.107,0.382,0.104,0.543-0.016
		c0.158-0.115,0.229-0.312,0.179-0.51l-2.239-8.414l6.756-5.497c0.154-0.126,0.215-0.33,0.153-0.519
		c-0.062-0.185-0.231-0.318-0.428-0.329l-8.695-0.477L16.445,3.56c-0.14-0.371-0.744-0.37-0.887,0l-3.142,8.123L3.718,12.16
		c-0.194,0.011-0.368,0.145-0.429,0.332c-0.059,0.184,0.002,0.393,0.154,0.516l6.754,5.497l-2.232,8.419
		c-0.051,0.191,0.02,0.393,0.18,0.508c0.151,0.109,0.377,0.118,0.539,0.014L16.001,22.723z"/>
</g>
<path display="none" fill="#697684" d="M29.062,18.607v-3.108c0-1.115-0.938-2.02-2.051-2.02l-2.228-0.062
	c-1.425-1.512-3.604-3.883-4.733-5.212c-0.564-0.666-2.156-0.807-2.156-0.807H9.768C9.617,6.869,9.152,6.38,8.574,6.38H8.181
	c-0.577,0-1.076,0.489-1.226,1.018h0.029l-2.662,5.143c-0.868,0.226-1.512,1.072-1.512,2.01v4.045
	c-0.602,0.188-1.042,0.737-1.042,1.397c0,0.81,0.656,1.562,1.467,1.562h0.601c0,0.006-0.002,0.014-0.002,0.021
	c0,2.232,1.812,4.046,4.046,4.046s4.046-1.812,4.046-4.046c0-0.008-0.002-0.016-0.002-0.021h7.057c0,0.006-0.004,0.014-0.004,0.021
	c0,2.232,1.813,4.046,4.047,4.046c2.234,0,4.047-1.812,4.047-4.046c0-0.008,0-0.016,0-0.021h1.531c0.812,0,1.467-0.752,1.467-1.562
	C30.07,19.346,29.646,18.802,29.062,18.607z M7.838,23.604c-1.118,0-2.023-0.903-2.023-2.021c0-1.119,0.905-2.022,2.023-2.022
	c1.116,0,2.023,0.903,2.023,2.022C9.862,22.698,8.955,23.604,7.838,23.604z M5.851,13.474l2.124-4.076h2.899l0.016,4.076H5.851z
	 M15.92,13.466h-4.042l0.029-4.031h4.013V13.466z M16.947,13.463V9.395h2.251l3.784,4.068H16.947z M22.982,23.604
	c-1.117,0-2.021-0.903-2.021-2.021c0-1.119,0.904-2.022,2.021-2.022s2.021,0.903,2.021,2.022
	C25.008,22.698,24.1,23.604,22.982,23.604z"/>
<path display="none" fill="#697684" d="M16.628,1.917c-2.973,0-5.384,2.411-5.384,5.384v3.231H6.936v4.308h4.308v15.077h4.308
	V14.841h4.847l1.076-4.308h-5.923V7.302c0-0.595,0.481-1.077,1.076-1.077h5.386V1.917H16.628L16.628,1.917z"/>
<g display="none">
	<path display="inline" fill="none" d="M7.485,15.215h17.048c0.004,0,0.037-0.013,0.083-0.076c0.065-0.092,0.108-0.234,0.112-0.381
		V4.313c0-0.184-0.062-0.33-0.112-0.405c-0.043-0.059-0.077-0.074-0.083-0.074H7.485V3.833c-0.006,0-0.039,0.014-0.085,0.077
		C7.346,3.984,7.287,4.129,7.288,4.312v7.333v0.321v2.768c-0.001,0.183,0.058,0.329,0.112,0.405
		C7.446,15.2,7.479,15.215,7.485,15.215z M9.402,6.7h13.213v1.074H9.402V6.7z M9.402,9.495h13.213v1.075H9.402V9.495z M9.402,12.292
		h13.213v1.074H9.402V12.292z"/>
	<path display="inline" fill="none" d="M6.754,4.313C6.753,4.046,6.833,3.783,6.97,3.596c0.022-0.03,0.045-0.049,0.068-0.074
		C7.015,3.547,6.985,3.561,6.964,3.59C6.825,3.785,6.75,4.041,6.749,4.313v6.579h0.006L6.754,4.313L6.754,4.313z"/>
	<path display="inline" fill="none" d="M7.485,15.75c-0.011,0-0.025-0.003-0.037-0.004c0.012,0.001,0.024,0.01,0.037,0.01h17.049
		c0.013,0,0.024-0.009,0.036-0.01c-0.012,0-0.025,0.004-0.037,0.004H7.485z"/>
	<path display="inline" fill="none" d="M25.264,14.766c-0.006,0.262-0.086,0.509-0.214,0.688c-0.015,0.02-0.03,0.031-0.045,0.048
		c0.017-0.018,0.035-0.026,0.05-0.046c0.139-0.194,0.215-0.45,0.215-0.722v-2.768h-0.006V14.766L25.264,14.766z"/>
	<path display="inline" fill="none" d="M25.264,4.314v6.578h0.006v-6.58c0-0.272-0.076-0.528-0.215-0.722
		c-0.021-0.03-0.052-0.044-0.076-0.071c0.022,0.025,0.047,0.044,0.068,0.074C25.186,3.783,25.264,4.045,25.264,4.314z"/>
	<path display="inline" fill="none" d="M7.016,15.504C7,15.486,6.985,15.475,6.97,15.455c-0.138-0.188-0.217-0.451-0.216-0.719
		v-2.769H6.749v2.768c0.001,0.272,0.076,0.528,0.215,0.722C6.979,15.477,7,15.485,7.016,15.504z"/>
	<path display="inline" fill="none" d="M24.533,3.301c0.017,0,0.037,0.004,0.057,0.006c-0.02-0.002-0.037-0.016-0.057-0.016H7.485
		v0.001c-0.018,0-0.033,0.012-0.05,0.014c0.016-0.001,0.033-0.005,0.047-0.005H24.533z"/>
	<path display="inline" fill="none" d="M27.893,11.426h-2.088v0.007h2.088c0.561,0,1.012,0.455,1.017,1.013v10.423
		c-0.005,0.558-0.456,1.012-1.015,1.013h-3.615v0.009h3.613c0.563,0,1.021-0.459,1.021-1.021V12.447
		C28.911,11.885,28.456,11.426,27.893,11.426z"/>
	<path display="inline" fill="none" d="M24.277,23.35h3.615c0.262,0,0.479-0.217,0.479-0.479V12.447c0-0.264-0.219-0.479-0.479-0.48
		h-2.088v2.769c0,0.385-0.113,0.751-0.316,1.033c-0.236,0.33-0.584,0.522-0.954,0.522H7.485c-0.371-0.001-0.72-0.192-0.955-0.524
		c-0.203-0.281-0.314-0.648-0.314-1.032v-2.769H4.252c-0.264,0-0.479,0.216-0.479,0.48v10.422c0,0.263,0.216,0.479,0.48,0.479h3.106
		v-2.423c0-0.657,0.522-1.196,1.162-1.2h14.592c0.643,0.004,1.164,0.543,1.164,1.2V23.35L24.277,23.35z"/>
	<path display="inline" fill="none" d="M23.204,20.93c0-0.082-0.056-0.128-0.091-0.128H8.523c-0.037,0-0.091,0.046-0.091,0.128
		v3.372v0.121v3.312c0,0.082,0.054,0.127,0.091,0.127h14.59c0.035,0,0.091-0.045,0.091-0.127v-4.377l-0.005-0.01h0.005V20.93z"/>
	<path display="inline" fill="none" d="M3.238,22.87V12.447c0.001-0.559,0.456-1.013,1.013-1.014h1.964v-0.007H4.252
		c-0.562,0-1.021,0.458-1.021,1.021v10.422c0,0.562,0.458,1.021,1.021,1.021h3.107v-0.01H4.252
		C3.694,23.881,3.24,23.427,3.238,22.87z"/>
	<path display="inline" fill="none" d="M23.736,27.734c0,0.363-0.28,0.66-0.623,0.66l-14.59,0.002
		C8.18,28.395,7.9,28.1,7.899,27.736v-3.312H7.893v3.312c0,0.365,0.283,0.664,0.631,0.666h14.587
		c0.349-0.002,0.631-0.301,0.632-0.668v-3.312h-0.007V27.734z"/>
	<path display="inline" fill="none" d="M23.111,20.262H8.523c-0.348,0.002-0.63,0.301-0.631,0.668v2.42h0.007v-2.42
		c0.001-0.365,0.282-0.66,0.624-0.66h14.59c0.343,0,0.623,0.295,0.623,0.658v2.422h0.007v-2.42
		C23.742,20.562,23.46,20.264,23.111,20.262z"/>
	<path display="inline" fill="#697684" d="M27.893,10.893h-2.088V4.314c0-0.389-0.111-0.746-0.312-1.033
		c-0.237-0.333-0.584-0.523-0.955-0.523H7.486c-0.371,0-0.72,0.19-0.956,0.522C6.325,3.568,6.216,3.924,6.216,4.313v6.579H4.252
		c-0.856,0-1.554,0.698-1.554,1.554v10.422c0,0.856,0.698,1.554,1.554,1.554h3.107v3.312c0,0.658,0.522,1.197,1.164,1.199h14.59
		c0.642-0.002,1.164-0.541,1.164-1.201V24.42h3.615c0.854,0,1.553-0.695,1.553-1.555v-10.42
		C29.445,11.589,28.749,10.893,27.893,10.893z M25.055,3.59c0.139,0.194,0.215,0.45,0.215,0.722v6.58h-0.006V4.314
		c0-0.269-0.078-0.531-0.217-0.721c-0.021-0.03-0.046-0.049-0.068-0.074C25.003,3.546,25.033,3.56,25.055,3.59z M25.27,11.967v2.768
		c0,0.272-0.076,0.528-0.215,0.722c-0.015,0.02-0.033,0.028-0.05,0.046c0.015-0.017,0.03-0.028,0.045-0.048
		c0.128-0.179,0.208-0.426,0.214-0.688v-2.799L25.27,11.967L25.27,11.967z M7.485,3.292L7.485,3.292l17.048-0.001
		c0.02,0,0.037,0.014,0.057,0.016c-0.02-0.002-0.04-0.006-0.057-0.006H7.482c-0.014,0-0.032,0.004-0.047,0.005
		C7.452,3.304,7.468,3.292,7.485,3.292z M7.288,11.967v-0.321V4.312C7.287,4.129,7.346,3.984,7.4,3.91
		c0.046-0.063,0.079-0.077,0.085-0.077v0.001h17.048c0.006,0,0.04,0.015,0.083,0.074c0.053,0.076,0.112,0.221,0.112,0.405v10.445
		c-0.004,0.147-0.047,0.289-0.112,0.381c-0.046,0.063-0.079,0.076-0.083,0.076H7.485c-0.005,0-0.039-0.015-0.084-0.076
		c-0.055-0.076-0.113-0.222-0.112-0.405L7.288,11.967L7.288,11.967z M24.57,15.746c-0.012,0.001-0.023,0.01-0.036,0.01H7.485
		c-0.013,0-0.024-0.009-0.037-0.01c0.012,0.001,0.025,0.004,0.037,0.004h17.048C24.545,15.75,24.559,15.746,24.57,15.746z
		 M6.749,4.313C6.75,4.041,6.825,3.785,6.964,3.59c0.021-0.03,0.051-0.043,0.074-0.069C7.016,3.546,6.993,3.565,6.97,3.596
		c-0.138,0.188-0.217,0.45-0.216,0.718v6.579H6.749V4.313z M6.749,11.967h0.006v2.769c-0.001,0.269,0.078,0.531,0.216,0.719
		c0.015,0.02,0.03,0.032,0.045,0.049C7,15.485,6.979,15.477,6.964,15.456c-0.139-0.193-0.214-0.449-0.215-0.722V11.967z
		 M7.359,23.891H4.252c-0.563,0-1.021-0.459-1.021-1.021V12.447c0-0.562,0.458-1.021,1.021-1.021h1.964v0.007H4.251
		c-0.558,0-1.012,0.455-1.013,1.014V22.87c0.002,0.557,0.456,1.011,1.014,1.013h3.107V23.891z M23.743,27.734
		c-0.001,0.367-0.283,0.664-0.632,0.666H8.524c-0.348-0.002-0.631-0.299-0.631-0.666v-3.312H7.9v3.312
		c0.001,0.363,0.281,0.66,0.624,0.66h14.591c0.342,0,0.621-0.297,0.623-0.66v-3.312h0.006L23.743,27.734L23.743,27.734z
		 M23.204,23.357v4.377c0,0.082-0.056,0.127-0.091,0.127H8.523c-0.038,0-0.091-0.045-0.091-0.127v-3.312v-0.121V20.93
		c0-0.082,0.055-0.128,0.091-0.128h14.59c0.035,0,0.091,0.046,0.091,0.128v2.42h-0.005L23.204,23.357z M23.743,23.35h-0.007v-2.422
		c0-0.363-0.28-0.658-0.623-0.658H8.523c-0.342,0-0.623,0.295-0.624,0.66v2.42H7.893v-2.42c0-0.367,0.283-0.666,0.631-0.668h14.589
		c0.348,0.002,0.63,0.301,0.631,0.668L23.743,23.35L23.743,23.35z M23.113,19.727H8.521c-0.64,0.004-1.162,0.543-1.162,1.203v2.42
		H4.253c-0.264,0-0.48-0.218-0.48-0.479V12.447c0-0.264,0.216-0.48,0.479-0.48h1.963v2.769c0,0.383,0.112,0.751,0.314,1.032
		c0.235,0.332,0.584,0.523,0.955,0.524h17.049c0.369,0,0.718-0.192,0.955-0.522c0.201-0.282,0.312-0.648,0.312-1.033v-2.769h2.09
		c0.264,0,0.479,0.216,0.479,0.48V22.87c0,0.264-0.221,0.479-0.479,0.479h-3.613v-2.42C24.277,20.27,23.756,19.729,23.113,19.727z
		 M28.912,22.869c-0.001,0.562-0.456,1.021-1.02,1.021h-3.615V23.88h3.615c0.558-0.001,1.012-0.455,1.014-1.013V12.446
		c-0.002-0.558-0.456-1.013-1.014-1.013h-2.088v-0.007h2.088c0.562,0,1.019,0.458,1.02,1.021V22.869z"/>
	<rect x="9.402" y="6.7" display="inline" fill="#697684" width="13.213" height="1.074"/>
	<rect x="9.402" y="9.495" display="inline" fill="#697684" width="13.213" height="1.075"/>
	<rect x="9.402" y="12.292" display="inline" fill="#697684" width="13.213" height="1.074"/>
</g>
<path display="none" fill="#697684" d="M17.305,4.093c0,0-5.531,0-7.375,0c-3.306,0-6.418,2.505-6.418,5.406
	c0,2.965,2.254,5.358,5.617,5.358c0.234,0,0.462-0.004,0.685-0.021c-0.219,0.418-0.375,0.889-0.375,1.377
	c0,0.825,0.443,1.492,1.003,2.038c-0.423,0-0.832,0.013-1.278,0.013c-4.095,0-7.247,2.607-7.247,5.312
	c0,2.665,3.455,4.33,7.551,4.33c4.67,0,7.248-2.648,7.248-5.313c0-2.135-0.629-3.413-2.578-4.793
	c-0.667-0.471-1.941-1.618-1.941-2.293c0-0.791,0.227-1.179,1.417-2.11c1.219-0.953,2.083-2.292,2.083-3.851
	c0-1.855-0.826-3.664-2.377-4.26h2.338l1.65-1.194L17.305,4.093L17.305,4.093z M14.729,22.135c0.06,0.247,0.091,0.501,0.091,0.762
	c0,2.151-1.387,3.834-5.368,3.834c-2.831,0-4.875-1.793-4.875-3.942c0-2.106,2.535-3.866,5.365-3.834
	c0.661,0.007,1.277,0.11,1.836,0.294C13.314,20.312,14.418,20.918,14.729,22.135L14.729,22.135z M10.197,14.106
	c-1.9-0.057-3.706-2.126-4.034-4.621C5.834,6.99,7.109,5.081,9.009,5.137c1.9,0.056,3.706,2.059,4.034,4.554
	C13.371,12.187,12.097,14.163,10.197,14.106L10.197,14.106z M24.818,9.378V4.093h-1.764v5.285h-5.283v1.762h5.283v5.285h1.764V11.14
	h5.285V9.378H24.818z"/>
<g display="none">
	<g display="inline">
		<circle fill="#697684" cx="10.934" cy="12.06" r="1.125"/>
	</g>
	<g display="inline">
		<circle fill="#697684" cx="21.064" cy="12.06" r="1.125"/>
	</g>
	<g display="inline">
		<path fill="#697684" d="M16,2.305C8.449,2.305,2.305,8.449,2.305,16c0,7.552,6.144,13.695,13.695,13.695
			c7.552,0,13.695-6.146,13.695-13.695S23.552,2.305,16,2.305z M16,28.195C9.276,28.195,3.805,22.725,3.805,16
			C3.805,9.276,9.276,3.805,16,3.805c6.725,0,12.195,5.471,12.195,12.195C28.195,22.725,22.725,28.195,16,28.195z"/>
	</g>
</g>
<g display="none">
	<rect x="10.935" y="20.875" display="inline" fill="#697684" width="10.131" height="1.5"/>
</g>
<path display="none" fill="#697684" d="M24.018,2.667H7.559c-2.858,0-5.184,2.325-5.184,5.184v5.476v10.981
	c0,2.855,2.326,5.184,5.184,5.184h16.458c2.855,0,5.184-2.325,5.184-5.184V13.326V7.85C29.2,4.992,26.875,2.667,24.018,2.667z
	 M25.504,5.758l0.592-0.002v0.59v3.957l-4.531,0.014l-0.014-4.546L25.504,5.758z M11.959,13.326c0.86-1.188,2.253-1.968,3.829-1.968
	c1.575,0,2.97,0.78,3.828,1.968c0.559,0.776,0.894,1.725,0.894,2.754c0,2.604-2.119,4.72-4.722,4.72
	c-2.604,0-4.722-2.116-4.722-4.72C11.066,15.051,11.4,14.102,11.959,13.326z M26.587,24.309c0,1.418-1.151,2.57-2.569,2.57H7.559
	c-1.417,0-2.57-1.15-2.57-2.57V13.326h4.004c-0.346,0.851-0.541,1.78-0.541,2.754c0,4.044,3.29,7.334,7.334,7.334
	c4.046,0,7.335-3.29,7.335-7.334c0-0.974-0.194-1.902-0.54-2.754h4.004L26.587,24.309L26.587,24.309z"/>
<path display="none" fill="#697684" d="M15.844,8.867c0.738,0,1.336,0.599,1.336,1.336c0,0.738-0.599,1.338-1.336,1.338
	c-0.74,0-1.338-0.6-1.338-1.338C14.506,9.466,15.104,8.867,15.844,8.867"/>
<polygon display="none" fill="#697684" points="17.215,21.699 17.215,13.145 14.006,13.145 14.006,13.679 15.074,13.679 
	15.074,21.699 14.006,21.699 14.006,22.232 18.283,22.232 18.283,21.699 "/>
<path display="none" fill="#697684" d="M16.144,1.917c-7.678,0-13.9,6.222-13.9,13.9c0,7.68,6.222,13.902,13.9,13.902
	c7.679,0,13.901-6.222,13.901-13.902C30.045,8.139,23.823,1.917,16.144,1.917 M16.144,28.562c-7.023,0-12.745-5.715-12.745-12.749
	c0-7.023,5.715-12.745,12.745-12.745c7.024,0,12.747,5.714,12.747,12.745C28.891,22.842,23.168,28.562,16.144,28.562"/>
<g display="none">
	<path display="inline" fill="#697684" d="M28.307,29.955c-0.381,0-0.738-0.146-1.009-0.417l-6.659-6.659
		c-2.035,1.594-4.531,2.459-7.124,2.459c-6.395,0-11.598-5.202-11.598-11.596c0-6.394,5.203-11.596,11.598-11.596
		c6.394,0,11.596,5.202,11.596,11.596c0,2.592-0.87,5.089-2.461,7.125l6.66,6.658c0.556,0.558,0.553,1.461,0,2.013
		C29.041,29.809,28.684,29.955,28.307,29.955z M13.515,5c-4.82,0-8.743,3.922-8.743,8.742s3.923,8.742,8.743,8.742
		c4.82,0,8.743-3.922,8.743-8.742C22.258,8.921,18.335,5,13.515,5z"/>
</g>
<g display="none">
	<rect x="2.249" y="11.289" display="inline" fill="#697684" width="6.049" height="18.197"/>
	<path display="inline" fill="#697684" d="M5.313,2.514c-2.068,0-3.421,1.359-3.421,3.144c0,1.745,1.312,3.144,3.341,3.144h0.041
		c2.109,0,3.423-1.398,3.423-3.144C8.655,3.873,7.383,2.514,5.313,2.514z"/>
	<path display="inline" fill="#697684" d="M23.146,10.857c-3.211,0-4.646,1.766-5.451,3.005v-2.576h-6.048
		c0.079,1.706,0,18.198,0,18.198h6.046V19.32c0-0.545,0.041-1.088,0.199-1.475c0.438-1.091,1.434-2.216,3.104-2.216
		c2.189,0,3.064,1.67,3.064,4.114v9.736h6.049l0,0V19.049C30.109,13.459,27.124,10.857,23.146,10.857z"/>
</g>
<path display="none" fill="#697684" d="M3.497,21.936c-0.873,0-1.581,0.707-1.581,1.58s0.708,1.582,1.581,1.582
	c0.874,0,1.582-0.709,1.582-1.582S4.371,21.936,3.497,21.936 M3.497,14.821c-0.873,0-1.581,0.708-1.581,1.582
	c0,0.875,0.708,1.58,1.581,1.58c0.874,0,1.582-0.707,1.582-1.58C5.079,15.529,4.371,14.821,3.497,14.821 M9.03,9.289h19.751
	c0.437,0,0.789-0.354,0.789-0.791c0-0.438-0.354-0.79-0.789-0.79H9.03c-0.437,0-0.791,0.353-0.791,0.79S8.592,9.289,9.03,9.289
	 M28.781,15.61H9.03c-0.437,0-0.791,0.354-0.791,0.792c0,0.436,0.354,0.79,0.791,0.79h19.751c0.437,0,0.789-0.354,0.789-0.79
	C29.572,15.965,29.219,15.61,28.781,15.61 M3.497,6.917c-0.873,0-1.581,0.708-1.581,1.581s0.708,1.581,1.581,1.581
	c0.874,0,1.582-0.708,1.582-1.581S4.371,6.917,3.497,6.917 M28.781,22.725H9.03c-0.437,0-0.791,0.354-0.791,0.791
	c0,0.438,0.354,0.791,0.791,0.791h19.751c0.437,0,0.789-0.354,0.789-0.791C29.572,23.078,29.219,22.725,28.781,22.725"/>
<path display="none" fill="#697684" d="M9.12,15.5c1.629,0,2.949-1.32,2.949-2.948c0-1.629-1.318-2.949-2.949-2.949
	c-1.625,0-2.949,1.32-2.949,2.949C6.171,14.18,7.494,15.5,9.12,15.5 M26.812,9.604H15.284v6.879H4.206V7.638
	c0-0.542-0.44-0.983-0.981-0.983c-0.545,0-0.983,0.441-0.983,0.983v15.727c0,0.541,0.439,0.98,0.983,0.98
	c0.542,0,0.981-0.439,0.981-0.98v-2.95h23.588v2.95c0,0.541,0.44,0.98,0.983,0.98c0.541,0,0.979-0.439,0.979-0.98V12.552
	C29.76,10.923,28.438,9.604,26.812,9.604"/>
<g display="none">
	<polygon display="inline" fill="#697684" points="1.907,25.23 10.356,16.173 1.907,6.797 	"/>
	<path display="inline" fill="#697684" d="M16.764,19.059l11.453-12.77H3.323l11.454,12.77
		C15.325,19.607,16.216,19.607,16.764,19.059z"/>
	<path display="inline" fill="#697684" d="M17.705,20.035c-1.07,1.068-2.801,1.068-3.87,0l-2.566-2.848L3.345,25.71h24.85
		l-7.924-8.522L17.705,20.035z"/>
	<polygon display="inline" fill="#697684" points="29.654,6.775 21.188,16.173 29.654,25.252 	"/>
</g>
<path display="none" fill="#697684" d="M16.65,1.917c-7.567,0-11.382,5.424-11.382,9.949c0,2.738,1.036,5.176,3.26,6.083
	c0.366,0.15,0.692,0.005,0.799-0.398c0.072-0.279,0.247-0.982,0.324-1.277c0.106-0.4,0.066-0.54-0.229-0.888
	c-0.641-0.755-1.052-1.735-1.052-3.124c0-4.024,3.011-7.627,7.841-7.627c4.277,0,6.626,2.614,6.626,6.103
	c0,4.593-2.032,8.469-5.049,8.469c-1.665,0-2.913-1.378-2.514-3.068c0.479-2.017,1.408-4.195,1.408-5.652
	c0-1.304-0.702-2.39-2.146-2.39c-1.703,0-3.071,1.761-3.071,4.122c0,1.503,0.507,2.521,0.507,2.521s-1.743,7.387-2.049,8.677
	c-0.608,2.576-0.092,5.733-0.047,6.054c0.026,0.188,0.269,0.232,0.38,0.092c0.155-0.205,2.186-2.709,2.874-5.213
	c0.197-0.709,1.121-4.379,1.121-4.379c0.554,1.059,2.172,1.985,3.894,1.985c5.115,0,8.592-4.667,8.592-10.914
	C26.73,6.316,22.73,1.917,16.65,1.917z"/>
<g display="none">
	<circle display="inline" fill="#697684" cx="15.272" cy="10.625" r="3.374"/>
	<path display="inline" fill="#697684" d="M23.938,11.658V9.763c-0.434-4.404-4.146-7.846-8.665-7.846
		c-4.81,0-8.708,3.899-8.708,8.708c0,8.708,8.708,19.158,8.708,19.158S23.307,20.139,23.938,11.658z M9.938,10.625
		c0-2.945,2.39-5.334,5.334-5.334s5.333,2.39,5.333,5.334s-2.39,5.333-5.333,5.333C12.328,15.959,9.938,13.57,9.938,10.625z"/>
</g>
<g display="none">
	<path display="inline" fill="#697684" d="M15.224,31.08l-1.448-2.545c-0.652-1.143-1.397-2.346-2.186-3.617
		c-2.79-4.495-5.949-9.587-5.949-14.033c0-5.359,4.311-9.718,9.61-9.718s9.608,4.359,9.608,9.718c0,4.417-3.396,9.924-6.389,14.78
		c-0.63,1.017-1.221,1.976-1.762,2.892L15.224,31.08z M15.251,2.667c-4.472,0-8.11,3.687-8.11,8.218c0,4.019,3.04,8.917,5.722,13.24
		c0.798,1.287,1.551,2.5,2.216,3.668l0.168,0.295l0.173-0.293c0.545-0.924,1.143-1.895,1.773-2.917
		c2.891-4.688,6.166-10.001,6.166-13.993C23.359,6.354,19.723,2.667,15.251,2.667z"/>
</g>
<g display="none">
	<path display="inline" fill="#697684" d="M15.251,15.447c-2.395,0-4.344-1.969-4.344-4.388s1.949-4.388,4.344-4.388
		c2.396,0,4.343,1.968,4.343,4.388S17.646,15.447,15.251,15.447z M15.251,8.171c-1.568,0-2.844,1.295-2.844,2.888
		c0,1.593,1.276,2.888,2.844,2.888c1.567,0,2.843-1.295,2.843-2.888C18.094,9.467,16.818,8.171,15.251,8.171z"/>
</g>
<path fill="#697684" d="M28.794,51.354H3.388c-0.748,0-1.356,0.609-1.356,1.357v5.632c0,0.002,0,0.003,0,0.005s0,0.003,0,0.005
	v10.674c0,0.748,0.608,1.355,1.356,1.355h25.405c0.746,0,1.355-0.607,1.355-1.355V52.712C30.148,51.964,29.541,51.354,28.794,51.354
	z M10.169,65.251h9.473v3.983h-9.473V65.251z M3.18,69.025V58.923h6.872v1.868c0,0.316,0.259,0.574,0.574,0.574
	c0.317,0,0.573-0.256,0.573-0.574v-5.737c0-0.317-0.256-0.574-0.573-0.574s-0.574,0.259-0.574,0.574v2.722H3.18v-5.064
	c0-0.115,0.094-0.209,0.208-0.209h16.254v11.602H9.595c-0.317,0-0.573,0.258-0.573,0.574c0,0,0,0,0,0.001l0,0v4.556H3.388
	C3.273,69.234,3.18,69.141,3.18,69.025z M29,69.025c0,0.115-0.092,0.209-0.206,0.209h-8.005V52.503h8.005
	c0.114,0,0.206,0.094,0.206,0.209V69.025z"/>
<g>
	<title>plan</title>
	<desc>Created with Sketch.</desc>
	<g id="Page-1">
		<g id="PDP" transform="translate(-551.000000, -927.000000)">
			<g id="plan" transform="translate(551.000000, 927.000000)">
				<g id="Clip-2">
				</g>
				<defs>
					<filter id="Adobe_OpacityMaskFilter" filterUnits="userSpaceOnUse" x="1.543" y="4.498" width="28.914" height="23.004">
						<feColorMatrix  type="matrix" values="1 0 0 0 0  0 1 0 0 0  0 0 1 0 0  0 0 0 1 0"/>
					</filter>
				</defs>
				<mask maskUnits="userSpaceOnUse" x="1.543" y="4.498" width="28.914" height="23.004" id="mask-2_2_">
					<g filter="url(#Adobe_OpacityMaskFilter)">
						<polygon id="path-1_2_" fill="#FFFFFF" points="16.004,4.498 1.553,4.498 1.553,27.502 30.457,27.502 30.457,4.498 						"/>
					</g>
				</mask>
				<path id="Fill-1" mask="url(#mask-2_2_)" fill="#697684" d="M29.876,4.498H2.124c-0.321,0-0.581,0.208-0.581,0.462v22.082
					c0,0.254,0.26,0.461,0.581,0.461H19.05c0.321,0,0.581-0.207,0.581-0.461c0-0.256-0.26-0.463-0.581-0.463H2.704V15.805h8.104
					v4.431c0,0.256,0.26,0.461,0.58,0.461c0.321,0,0.582-0.205,0.582-0.461v-9.679c0-0.255-0.261-0.462-0.582-0.462
					c-0.32,0-0.58,0.207-0.58,0.462v4.323H2.704V5.422h15.765v5.788c0,0.255,0.261,0.462,0.581,0.462h6.144
					c0.32,0,0.581-0.207,0.581-0.462s-0.261-0.462-0.581-0.462h-5.562V5.422h9.663v14.351H19.05c-0.32,0-0.581,0.207-0.581,0.463
					s0.261,0.461,0.581,0.461h10.244v5.881h-4.101c-0.32,0-0.58,0.207-0.58,0.463c0,0.254,0.26,0.461,0.58,0.461h4.683
					c0.321,0,0.581-0.207,0.581-0.461V4.959C30.457,4.706,30.197,4.498,29.876,4.498z"/>
			</g>
		</g>
	</g>
</g>
<path fill="none" stroke="#697684" stroke-miterlimit="10" d="M30.059-10.834c0,1.657-1.343,3-3,3H4.941c-1.657,0-3-1.343-3-3
	v-12.531c0-1.657,1.343-3,3-3h22.118c1.657,0,3,1.343,3,3V-10.834z"/>
<g>
	<g>
		<rect x="65.519" y="-74.314" fill="#697684" width="1.4" height="7.124"/>
	</g>
	<g>
		<rect x="64.482" y="-60.987" fill="#697684" width="10.9" height="1.271"/>
	</g>
	<g>
		<rect x="65.519" y="-67.606" fill="#697684" width="8.111" height="1.271"/>
	</g>
	<g>
		<rect x="48.594" y="-67.312" fill="#697684" width="9.828" height="1.269"/>
	</g>
	<g>
		<path fill="#697684" d="M74.803-52.25H60.994v-1.271h13.809c-0.006-0.008,0.084-0.117,0.084-0.305v-19.637
			c0-0.188-0.09-0.298-0.122-0.315L49.377-73.77c0.008,0.009-0.083,0.119-0.083,0.308v19.637c0,0.188,0.09,0.297,0.12,0.312
			l5.477-0.007v-6.879h1.398v8.148h-6.912c-0.83,0-1.482-0.693-1.482-1.575v-19.637c0-0.885,0.652-1.577,1.482-1.577h25.426
			c0.831,0,1.482,0.692,1.482,1.577v19.637C76.285-52.943,75.634-52.25,74.803-52.25z"/>
	</g>
	<g>
		<rect x="58.113" y="-74.547" fill="#697684" width="1.398" height="3.809"/>
	</g>
</g>
</svg>
